<svg width="60" height="61" viewBox="0 0 60 61" fill="none" xmlns="http://www.w3.org/2000/svg">
<g clip-path="url(#clip0_2_18)">
<path d="M12 60.0512C10.35 60.0512 9 58.7012 9 57.0512V53.4512C9 51.8012 10.35 50.4512 12 50.4512C13.65 50.4512 15 51.8012 15 53.4512V57.0512C15 58.7012 13.65 60.0512 12 60.0512Z" fill="white"/>
<path d="M12 60.7532C9.96 60.7532 8.298 59.0912 8.298 57.0512V53.4512C8.298 51.4112 9.96 49.7492 12 49.7492C14.04 49.7492 15.702 51.4112 15.702 53.4512V57.0512C15.702 59.0912 14.04 60.7532 12 60.7532ZM12 51.1532C10.734 51.1532 9.702 52.1852 9.702 53.4512V57.0512C9.702 58.3172 10.734 59.3492 12 59.3492C13.266 59.3492 14.298 58.3172 14.298 57.0512V53.4512C14.298 52.1852 13.266 51.1532 12 51.1532Z" fill="#FF4700"/>
<path d="M48 60.0512C46.35 60.0512 45 58.7012 45 57.0512V53.4512C45 51.8012 46.35 50.4512 48 50.4512C49.65 50.4512 51 51.8012 51 53.4512V57.0512C51 58.7012 49.65 60.0512 48 60.0512Z" fill="white"/>
<path d="M48 60.7532C45.96 60.7532 44.298 59.0912 44.298 57.0512V53.4512C44.298 51.4112 45.96 49.7492 48 49.7492C50.04 49.7492 51.702 51.4112 51.702 53.4512V57.0512C51.702 59.0912 50.04 60.7532 48 60.7532ZM48 51.1532C46.734 51.1532 45.702 52.1852 45.702 53.4512V57.0512C45.702 58.3172 46.734 59.3492 48 59.3492C49.266 59.3492 50.298 58.3172 50.298 57.0512V53.4512C50.298 52.1852 49.266 51.1532 48 51.1532Z" fill="#FF4700"/>
<path d="M51.228 36.9512H9.228L15.15 22.5512H45.15L51.228 36.9512Z" fill="white"/>
<path d="M51.228 37.5512H9.22801C9.03001 37.5512 8.83801 37.4492 8.73001 37.2872C8.61601 37.1192 8.59801 36.9092 8.67601 36.7232L14.604 22.3232C14.694 22.0952 14.916 21.9512 15.156 21.9512H45.156C45.396 21.9512 45.612 22.0952 45.708 22.3172L51.78 36.7172C51.858 36.9032 51.84 37.1132 51.726 37.2812C51.612 37.4552 51.426 37.5512 51.228 37.5512ZM10.122 36.3512H50.322L44.754 23.1512H15.552L10.122 36.3512Z" fill="#FF4700"/>
<path d="M52.572 39.9512H7.57202V53.1512H52.572V39.9512Z" fill="white"/>
<path d="M52.572 53.7512H7.57202C7.24202 53.7512 6.97202 53.4812 6.97202 53.1512V39.9512C6.97202 39.6212 7.24202 39.3512 7.57202 39.3512H52.572C52.902 39.3512 53.172 39.6212 53.172 39.9512V53.1512C53.172 53.4872 52.908 53.7512 52.572 53.7512ZM8.17202 52.5512H51.972V40.5512H8.17202V52.5512Z" fill="#FF4700"/>
<path d="M52.572 39.9512H7.57199L9.22799 36.9512H51.228L52.572 39.9512Z" fill="white"/>
<path d="M52.572 40.5512H7.57199C7.36199 40.5512 7.16399 40.4372 7.05599 40.2572C6.94799 40.0772 6.94199 39.8492 7.04399 39.6632L8.69399 36.6632C8.80199 36.4712 8.99999 36.3512 9.22199 36.3512H51.222C51.456 36.3512 51.672 36.4892 51.768 36.7052L53.118 39.7052C53.202 39.8912 53.184 40.1072 53.076 40.2752C52.968 40.4432 52.776 40.5512 52.572 40.5512ZM8.59199 39.3512H51.648L50.838 37.5512H9.58199L8.59199 39.3512Z" fill="#FF4700"/>
<path d="M13.5 47.1512C14.8255 47.1512 15.9 46.0767 15.9 44.7512C15.9 43.4257 14.8255 42.3512 13.5 42.3512C12.1745 42.3512 11.1 43.4257 11.1 44.7512C11.1 46.0767 12.1745 47.1512 13.5 47.1512Z" fill="white"/>
<path d="M13.5 47.7512C11.844 47.7512 10.5 46.4072 10.5 44.7512C10.5 43.0952 11.844 41.7512 13.5 41.7512C15.156 41.7512 16.5 43.0952 16.5 44.7512C16.5 46.4072 15.156 47.7512 13.5 47.7512ZM13.5 42.9512C12.51 42.9512 11.7 43.7612 11.7 44.7512C11.7 45.7412 12.51 46.5512 13.5 46.5512C14.49 46.5512 15.3 45.7412 15.3 44.7512C15.3 43.7612 14.49 42.9512 13.5 42.9512Z" fill="#FF4700"/>
<path d="M47.1 47.1512C48.4255 47.1512 49.5 46.0767 49.5 44.7512C49.5 43.4257 48.4255 42.3512 47.1 42.3512C45.7745 42.3512 44.7 43.4257 44.7 44.7512C44.7 46.0767 45.7745 47.1512 47.1 47.1512Z" fill="white"/>
<path d="M47.1 47.7512C45.444 47.7512 44.1 46.4072 44.1 44.7512C44.1 43.0952 45.444 41.7512 47.1 41.7512C48.756 41.7512 50.1 43.0952 50.1 44.7512C50.1 46.4072 48.756 47.7512 47.1 47.7512ZM47.1 42.9512C46.11 42.9512 45.3 43.7612 45.3 44.7512C45.3 45.7412 46.11 46.5512 47.1 46.5512C48.09 46.5512 48.9 45.7412 48.9 44.7512C48.9 43.7612 48.09 42.9512 47.1 42.9512Z" fill="#FF4700"/>
<path d="M41.85 43.2512H19.65V43.8512H41.85V43.2512Z" fill="#FF4700"/>
<path d="M39.6 45.9512H21.6V46.5512H39.6V45.9512Z" fill="#FF4700"/>
<path d="M37.5 48.6512H23.7V49.2512H37.5V48.6512Z" fill="#FF4700"/>
<path d="M9.30001 37.5512C9.12001 37.5512 8.94001 37.4672 8.82001 37.3112L5.22001 32.5112C5.02201 32.2472 5.07601 31.8692 5.34001 31.6712C5.60401 31.4732 5.98201 31.5272 6.18001 31.7912L9.78001 36.5912C9.97801 36.8552 9.92401 37.2332 9.66001 37.4312C9.55201 37.5152 9.42601 37.5512 9.30001 37.5512Z" fill="#FF4700"/>
<path d="M50.7 37.5512C50.574 37.5512 50.448 37.5092 50.34 37.4312C50.076 37.2332 50.022 36.8552 50.22 36.5912L53.82 31.7912C54.018 31.5272 54.396 31.4732 54.66 31.6712C54.924 31.8692 54.978 32.2472 54.78 32.5112L51.18 37.3112C51.06 37.4732 50.88 37.5512 50.7 37.5512Z" fill="#FF4700"/>
</g>
<defs>
<clipPath id="clip0_2_18">
<rect width="60" height="60" fill="white" transform="translate(0 0.591248)"/>
</clipPath>
</defs>
</svg>
