<svg width="60" height="61" viewBox="0 0 60 61" fill="none" xmlns="http://www.w3.org/2000/svg">
<g clip-path="url(#clip0_2_95)">
<path d="M48.3 38.5033L11.7 37.9033V8.80325H48.3V38.5033Z" fill="white"/>
<path d="M48.3 39.1032C48.294 39.1032 48.294 39.1032 48.288 39.1032L11.688 38.5032C11.358 38.4972 11.1 38.2332 11.1 37.9032V8.80325C11.1 8.47325 11.37 8.20325 11.7 8.20325H48.3C48.63 8.20325 48.9 8.47325 48.9 8.80325V38.5032C48.9 38.6652 48.834 38.8152 48.72 38.9292C48.606 39.0432 48.456 39.1032 48.3 39.1032ZM12.3 37.3152L47.7 37.8972V9.40325H12.3V37.3152Z" fill="#FF4700"/>
<path d="M15.6 60.1033C13.95 60.1033 12.6 58.7533 12.6 57.1033V53.5033C12.6 51.8533 13.95 50.5033 15.6 50.5033C17.25 50.5033 18.6 51.8533 18.6 53.5033V57.1033C18.6 58.7533 17.25 60.1033 15.6 60.1033Z" fill="white"/>
<path d="M15.6 60.7033C13.614 60.7033 12 59.0893 12 57.1033V53.5033C12 51.5173 13.614 49.9033 15.6 49.9033C17.586 49.9033 19.2 51.5173 19.2 53.5033V57.1033C19.2 59.0893 17.586 60.7033 15.6 60.7033ZM15.6 51.1033C14.274 51.1033 13.2 52.1773 13.2 53.5033V57.1033C13.2 58.4293 14.274 59.5033 15.6 59.5033C16.926 59.5033 18 58.4293 18 57.1033V53.5033C18 52.1833 16.926 51.1033 15.6 51.1033Z" fill="#FF4700"/>
<path d="M44.4 60.1033C42.75 60.1033 41.4 58.7533 41.4 57.1033V53.5033C41.4 51.8533 42.75 50.5033 44.4 50.5033C46.05 50.5033 47.4 51.8533 47.4 53.5033V57.1033C47.4 58.7533 46.05 60.1033 44.4 60.1033Z" fill="white"/>
<path d="M44.4 60.7033C42.414 60.7033 40.8 59.0893 40.8 57.1033V53.5033C40.8 51.5173 42.414 49.9033 44.4 49.9033C46.386 49.9033 48 51.5173 48 53.5033V57.1033C48 59.0893 46.386 60.7033 44.4 60.7033ZM44.4 51.1033C43.074 51.1033 42 52.1773 42 53.5033V57.1033C42 58.4293 43.074 59.5033 44.4 59.5033C45.726 59.5033 46.8 58.4293 46.8 57.1033V53.5033C46.8 52.1833 45.726 51.1033 44.4 51.1033Z" fill="#FF4700"/>
<path d="M45.42 17.2032H14.22L11.22 35.8032H48.42L45.42 17.2032Z" fill="white"/>
<path d="M48.42 36.4032H11.22C11.046 36.4032 10.878 36.3252 10.764 36.1932C10.65 36.0612 10.602 35.8812 10.626 35.7072L13.626 17.1072C13.674 16.8192 13.926 16.6032 14.22 16.6032H45.42C45.714 16.6032 45.966 16.8192 46.014 17.1072L49.014 35.7072C49.044 35.8812 48.99 36.0552 48.876 36.1932C48.762 36.3252 48.594 36.4032 48.42 36.4032ZM11.922 35.2032H47.712L44.904 17.8032H14.724L11.922 35.2032Z" fill="#FF4700"/>
<path d="M48.42 35.8033H11.22V53.2033H48.42V35.8033Z" fill="white"/>
<path d="M48.42 53.8032H11.22C10.89 53.8032 10.62 53.5332 10.62 53.2032V35.8032C10.62 35.4732 10.89 35.2032 11.22 35.2032H48.42C48.75 35.2032 49.02 35.4732 49.02 35.8032V53.2032C49.02 53.5392 48.75 53.8032 48.42 53.8032ZM11.82 52.6032H47.82V36.4032H11.82V52.6032Z" fill="#FF4700"/>
<path d="M16.8 44.5033C18.4569 44.5033 19.8 43.1601 19.8 41.5033C19.8 39.8464 18.4569 38.5033 16.8 38.5033C15.1431 38.5033 13.8 39.8464 13.8 41.5033C13.8 43.1601 15.1431 44.5033 16.8 44.5033Z" fill="white"/>
<path d="M16.8 45.1033C14.814 45.1033 13.2 43.4893 13.2 41.5033C13.2 39.5173 14.814 37.9033 16.8 37.9033C18.786 37.9033 20.4 39.5173 20.4 41.5033C20.4 43.4893 18.786 45.1033 16.8 45.1033ZM16.8 39.1033C15.474 39.1033 14.4 40.1773 14.4 41.5033C14.4 42.8293 15.474 43.9033 16.8 43.9033C18.126 43.9033 19.2 42.8293 19.2 41.5033C19.2 40.1773 18.126 39.1033 16.8 39.1033Z" fill="#FF4700"/>
<path d="M42.6 44.5033C44.2569 44.5033 45.6 43.1601 45.6 41.5033C45.6 39.8464 44.2569 38.5033 42.6 38.5033C40.9431 38.5033 39.6 39.8464 39.6 41.5033C39.6 43.1601 40.9431 44.5033 42.6 44.5033Z" fill="white"/>
<path d="M42.6 45.1033C40.614 45.1033 39 43.4893 39 41.5033C39 39.5173 40.614 37.9033 42.6 37.9033C44.586 37.9033 46.2 39.5173 46.2 41.5033C46.2 43.4893 44.586 45.1033 42.6 45.1033ZM42.6 39.1033C41.274 39.1033 40.2 40.1773 40.2 41.5033C40.2 42.8293 41.274 43.9033 42.6 43.9033C43.926 43.9033 45 42.8293 45 41.5033C45 40.1773 43.926 39.1033 42.6 39.1033Z" fill="#FF4700"/>
<path d="M37.32 42.1032H22.32V43.3032H37.32V42.1032Z" fill="#FF4700"/>
<path d="M37.32 45.1032H22.32V46.3032H37.32V45.1032Z" fill="#FF4700"/>
<path d="M37.32 48.1032H22.32V49.3032H37.32V48.1032Z" fill="#FF4700"/>
<path d="M48.6 35.5032C48.474 35.5032 48.348 35.4612 48.24 35.3832C47.976 35.1852 47.922 34.8072 48.12 34.5432L51.72 29.7432C51.918 29.4792 52.296 29.4252 52.56 29.6232C52.824 29.8212 52.878 30.1992 52.68 30.4632L49.08 35.2632C48.96 35.4252 48.78 35.5032 48.6 35.5032Z" fill="#FF4700"/>
<path d="M11.4 35.5032C11.22 35.5032 11.04 35.4192 10.92 35.2632L7.32 30.4632C7.122 30.1992 7.176 29.8212 7.44 29.6232C7.704 29.4252 8.082 29.4792 8.28 29.7432L11.88 34.5432C12.078 34.8072 12.024 35.1852 11.76 35.3832C11.652 35.4672 11.526 35.5032 11.4 35.5032Z" fill="#FF4700"/>
</g>
<defs>
<clipPath id="clip0_2_95">
<rect width="60" height="60" fill="white" transform="translate(0 0.493256)"/>
</clipPath>
</defs>
</svg>
