<?xml version="1.0" encoding="utf-8"?>
<!-- Generator: Adobe Illustrator 25.0.0, SVG Export Plug-In . SVG Version: 6.00 Build 0)  -->
<svg version="1.1" id="Layer_1" xmlns="http://www.w3.org/2000/svg" xmlns:xlink="http://www.w3.org/1999/xlink" x="0px" y="0px"
	 viewBox="0 0 64.2 63.2" style="enable-background:new 0 0 64.2 63.2;" xml:space="preserve">
<style type="text/css">
	.st0{display:none;}
	.st1{fill:#FF4700;}
	.st2{clip-path:url(#SVGID_2_);}
	.st3{clip-path:url(#SVGID_4_);}
	.st4{clip-path:url(#SVGID_6_);}
	.st5{clip-path:url(#SVGID_8_);}
	.st6{clip-path:url(#SVGID_10_);}
</style>
<g id="Layer_1_1_" class="st0">
	
		<image style="display:inline;overflow:visible;" width="450" height="336" xlink:href="C:\Users\507강사\AppData\Local\Temp\Adobe\AISVG\3FF3D75E.jpeg"  transform="matrix(2.4774 0 0 2.4774 -683.1411 -558.1148)">
	</image>
	
		<image style="display:inline;overflow:visible;" width="450" height="336" xlink:href="C:\Users\507강사\AppData\Local\Temp\Adobe\AISVG\3FF3D75E.jpeg"  transform="matrix(2.4774 0 0 2.4774 -683.1411 -558.1148)">
	</image>
	
		<image style="display:inline;overflow:visible;enable-background:new    ;" width="450" height="336" xlink:href="89B501C4.jpeg"  transform="matrix(2.4774 0 0 2.4774 -683.1411 -558.1148)">
	</image>
</g>
<g id="Layer_2_1_">
	<g>
		<path class="st1" d="M31.7,62.8c-17.1,0-31-13.9-31-31s13.9-31,31-31s31,13.9,31,31S48.8,62.8,31.7,62.8z M31.7,2.8
			c-16,0-29,13-29,29s13,29,29,29s29-13,29-29S47.7,2.8,31.7,2.8z"/>
	</g>
	<g>
		<g>
			<defs>
				<circle id="SVGID_1_" cx="31.7" cy="31.8" r="30"/>
			</defs>
			<clipPath id="SVGID_2_">
				<use xlink:href="#SVGID_1_"  style="overflow:visible;"/>
			</clipPath>
			<g class="st2">
				<path class="st1" d="M31.7,62.8c-0.6,0-1-0.4-1-1v-60c0-0.6,0.4-1,1-1s1,0.4,1,1v60C32.7,62.3,32.2,62.8,31.7,62.8z"/>
			</g>
		</g>
		<g>
			<defs>
				<circle id="SVGID_3_" cx="31.7" cy="31.8" r="30"/>
			</defs>
			<clipPath id="SVGID_4_">
				<use xlink:href="#SVGID_3_"  style="overflow:visible;"/>
			</clipPath>
			<g class="st3">
				<g>
					<path class="st1" d="M18.4,63.1c-0.4,0-0.8-0.3-1-0.7c-5.7-21.4-5.7-39.7,0-61.2c0.1-0.5,0.7-0.9,1.2-0.7
						c0.5,0.1,0.9,0.7,0.7,1.2c-5.6,21.1-5.6,39.1,0,60.2c0.1,0.5-0.2,1.1-0.7,1.2C18.6,63.1,18.5,63.1,18.4,63.1z"/>
				</g>
			</g>
		</g>
		<g>
			<defs>
				<circle id="SVGID_5_" cx="31.7" cy="31.8" r="30"/>
			</defs>
			<clipPath id="SVGID_6_">
				<use xlink:href="#SVGID_5_"  style="overflow:visible;"/>
			</clipPath>
			<g class="st4">
				<g>
					<path class="st1" d="M44.9,63.1c-0.1,0-0.2,0-0.3,0c-0.5-0.1-0.9-0.7-0.7-1.2c5.6-21.1,5.6-39.1,0-60.2
						c-0.1-0.5,0.2-1.1,0.7-1.2c0.5-0.1,1.1,0.2,1.2,0.7c5.7,21.5,5.7,39.8,0,61.2C45.8,62.8,45.3,63.1,44.9,63.1z"/>
				</g>
			</g>
		</g>
		<g>
			<defs>
				<circle id="SVGID_7_" cx="31.7" cy="31.8" r="30"/>
			</defs>
			<clipPath id="SVGID_8_">
				<use xlink:href="#SVGID_7_"  style="overflow:visible;"/>
			</clipPath>
			<g class="st5">
				<g>
					<path class="st1" d="M61.7,24.4c-0.1,0-0.2,0-0.2,0c-21.1-5.3-39.1-5.3-60.2,0c-0.5,0.1-1.1-0.2-1.2-0.7
						c-0.1-0.5,0.2-1.1,0.7-1.2c21.4-5.4,39.7-5.4,61.1,0c0.5,0.1,0.9,0.7,0.7,1.2C62.6,24.1,62.2,24.4,61.7,24.4z"/>
				</g>
			</g>
		</g>
		<g>
			<defs>
				<circle id="SVGID_9_" cx="31.7" cy="31.8" r="30"/>
			</defs>
			<clipPath id="SVGID_10_">
				<use xlink:href="#SVGID_9_"  style="overflow:visible;"/>
			</clipPath>
			<g class="st6">
				<g>
					<path class="st1" d="M31.7,44.3c-9.9,0-19.9-1.4-30.6-4.3c-0.5-0.1-0.9-0.7-0.7-1.2c0.1-0.5,0.7-0.8,1.2-0.7
						c21.1,5.6,39.1,5.6,60.2,0c0.5-0.1,1.1,0.2,1.2,0.7c0.1,0.5-0.2,1.1-0.7,1.2C51.5,42.8,41.6,44.3,31.7,44.3z"/>
				</g>
			</g>
		</g>
	</g>
</g>
</svg>
